<?xml version="1.0" standalone="no"?>
<!DOCTYPE svg PUBLIC "-//W3C//DTD SVG 20010904//EN"
 "http://www.w3.org/TR/2001/REC-SVG-20010904/DTD/svg10.dtd">
<svg version="1.0" xmlns="http://www.w3.org/2000/svg"
 width="232.000000pt" height="232.000000pt" viewBox="0 0 232.000000 232.000000"
 preserveAspectRatio="xMidYMid meet">
<metadata>
Created by potrace 1.11, written by Peter Selinger 2001-2013
</metadata>
<g transform="translate(0.000000,232.000000) scale(0.100000,-0.100000)"
fill="#000000" stroke="none">
<path d="M485 1528 c1 -101 0 -186 -3 -191 -2 -4 -17 4 -33 17 -39 33 -113 54
-173 50 -164 -13 -269 -156 -270 -369 0 -151 14 -215 67 -295 56 -86 126 -122
234 -121 70 0 111 17 161 64 l32 31 0 -42 0 -42 95 0 95 0 0 540 0 540 -103 0
-102 0 0 -182z m-72 -302 c67 -28 71 -40 72 -213 1 -140 -1 -158 -19 -181 -54
-69 -171 -67 -220 4 -48 70 -52 243 -8 329 36 71 100 93 175 61z"/>
<path d="M1125 1398 c-168 -34 -276 -185 -276 -388 1 -103 5 -131 35 -195 47
-101 153 -177 267 -192 137 -19 239 7 328 83 22 20 41 39 41 43 0 3 -22 31
-49 61 l-50 55 -21 -22 c-33 -36 -80 -55 -145 -60 -85 -7 -140 23 -177 96 -15
30 -26 56 -24 60 2 3 113 6 245 5 l242 0 -5 101 c-8 158 -50 246 -150 310 -69
44 -172 61 -261 43z m144 -172 c37 -20 61 -58 64 -104 l2 -37 -137 -1 c-134
-1 -138 -1 -138 20 0 11 10 39 23 61 37 66 122 94 186 61z"/>
<path d="M1611 1363 c6 -16 58 -167 115 -338 57 -171 108 -319 114 -330 5 -11
10 -29 12 -40 3 -18 12 -20 103 -23 l100 -3 124 368 c68 203 126 374 129 381
3 10 -19 12 -104 10 l-108 -3 -8 -30 c-41 -155 -130 -470 -133 -474 -3 -2 -5
2 -5 10 0 8 -30 123 -66 257 l-67 242 -108 0 -109 0 11 -27z"/>
</g>
</svg>
